inDegrees=no
num_controls=7
num_derivatives=13
num_iterations=106
num_multipliers=7
num_parameters=0
num_slacks=7
num_states=26
objective=5.267094
objective_accelerations=0.470102
objective_balance=0.078372
objective_effort=0.416602
objective_height=4.199053
objective_ligament=0.102965
solver_duration=1255.607998
status=Solve_Succeeded
success=true
DataType=double
version=3
OpenSimVersion=4.4-2022-07-23-0e9fedc
endheader
time	/jointset/ground_pelvis/pelvis_tilt/value	/jointset/ground_pelvis/pelvis_tx/value	/jointset/ground_pelvis/pelvis_ty/value	/jointset/hip_l/hip_flexion_l/value	/jointset/hip_l/hip_adduction_l/value	/jointset/hip_l/hip_rotation_l/value	/jointset/back/lumbar_extension/value	/jointset/patellofemoral_l/patellar_flexion_l/value	/jointset/knee_l/knee_flexion_l/value	/jointset/knee_l/knee_adduction_l/value	/jointset/knee_l/knee_rotation_l/value	/jointset/ankle_l/ankle_angle_l/value	/jointset/subtalar_l/subtalar_angle_l/value	/jointset/ground_pelvis/pelvis_tilt/speed	/jointset/ground_pelvis/pelvis_tx/speed	/jointset/ground_pelvis/pelvis_ty/speed	/jointset/hip_l/hip_flexion_l/speed	/jointset/hip_l/hip_adduction_l/speed	/jointset/hip_l/hip_rotation_l/speed	/jointset/back/lumbar_extension/speed	/jointset/patellofemoral_l/patellar_flexion_l/speed	/jointset/knee_l/knee_flexion_l/speed	/jointset/knee_l/knee_adduction_l/speed	/jointset/knee_l/knee_rotation_l/speed	/jointset/ankle_l/ankle_angle_l/speed	/jointset/subtalar_l/subtalar_angle_l/speed	/forceset/tau_hip_flexion_l	/forceset/tau_hip_adduction_l	/forceset/tau_hip_rotation_l	/forceset/tau_knee_flexion_l	/forceset/tau_ankle_angle_l	/forceset/tau_subtalar_angle_l	/forceset/tau_lumbar_extension	lambda_cid13_p0	lambda_cid13_p1	lambda_cid13_p2	lambda_cid13_p3	lambda_cid13_p4	lambda_cid13_p5	lambda_cid14_p0	/jointset/ground_pelvis/pelvis_tilt/accel	/jointset/ground_pelvis/pelvis_tx/accel	/jointset/ground_pelvis/pelvis_ty/accel	/jointset/hip_l/hip_flexion_l/accel	/jointset/hip_l/hip_adduction_l/accel	/jointset/hip_l/hip_rotation_l/accel	/jointset/back/lumbar_extension/accel	/jointset/patellofemoral_l/patellar_flexion_l/accel	/jointset/knee_l/knee_flexion_l/accel	/jointset/knee_l/knee_adduction_l/accel	/jointset/knee_l/knee_rotation_l/accel	/jointset/ankle_l/ankle_angle_l/accel	/jointset/subtalar_l/subtalar_angle_l/accel	gamma_cid13_p0	gamma_cid13_p1	gamma_cid13_p2	gamma_cid13_p3	gamma_cid13_p4	gamma_cid13_p5	gamma_cid14_p0
1	-0.6627632778501272	-0.1372280874849272	0.6467044295411107	1.806674229993323	-0.3094744407614848	0.0579269309097146	-0.4363245460690023	0.9911959254038942	0.9911959254040068	-0.1745160557010705	0.1745269146717777	0.0272870609434341	-0.05426537331402002	-0.01006123584642938	0.0009882873117967675	-0.0028174745989945	0.0154807794881365	0.0004280017307558407	0.003417051212063654	4.550567473361928e-05	0.008807420686190249	0.00880742068618111	-9.263575193013949e-05	1.995226850341707e-05	0.004121555550106506	0.001145608834785852	-0.4343987447987663	0.02491653886770995	-0.01966191360645196	-0.2091628872862797	0.1544958328985685	0.03675277195405236	0.3489542130760577	4.012558902508023	-17.21973534162013	2.977319877375815	4.52882384313741	-713.3538476133878	-42.11319968662593	-9.737906765667915	2.068915807826816	0.3668769143888163	1.389251946349794	-5.766612928486066	-0.1544654720238946	-1.399515211911164	-0.03905311717285733	-3.897658036871166	-3.89765803687118	-0.02631783366187132	0.007969314097985446	-0.4372496214139802	-0.198233467023111	7.292577490319792e-10	2.961839402977703e-09	-4.278988009200772e-09	6.417413956053697e-11	7.366450147394875e-10	-3.999061941728817e-10	1.047055503638736e-09
1.01	-0.6627612214915535	-0.1371999178372298	0.6467455959027327	1.806541738185435	-0.3094772257775855	0.05789080536792619	-0.4363250171743979	0.9910893249679219	0.9910893249681632	-0.1745169325506545	0.1745270523776616	0.02730656428673151	-0.05426312697727292	0.0104687136189816	0.004647058230648137	0.01104840368855418	-0.04197181654170996	-0.0009834464540832738	-0.01064151720787867	-0.0001195386567196072	-0.03012335776302821	-0.03012335776303287	-8.134639423415746e-05	8.151297434628871e-06	-0.0002199317119276934	-0.0006945920939366788	-0.4344698917545163	0.02497731216080317	-0.01965397543008566	-0.209021723968276	0.154340420692983	0.03678885330832711	0.3490393736521601	3.967219312961787	-17.22815168329391	2.979443868839833	4.522554021457665	-713.3201104645947	-42.12221084441963	-9.744560680688258	2.04446517513503	0.3655896935259689	1.384903712873528	-5.733484575003758	-0.1342512464731637	-1.408933412228276	-0.002201873188048568	-3.890164767806389	-3.890164767805951	0.01505958923312491	-0.005672739341343437	-0.4324549296881283	-0.1766514138898679	-1.559533862925037e-09	-4.075981596687872e-09	9.027873910396308e-09	5.572004166720884e-10	-2.823443392650675e-09	7.670305513691644e-09	-2.284538050079747e-09
1.02	-0.6625539795064381	-0.1371351179777656	0.6469253506358135	1.805834940090353	-0.309494078626475	0.05771411299083196	-0.4363265330797002	0.9905935413436944	0.9905935413440058	-0.1745176550529614	0.174527088486502	0.02728268142719158	-0.05427923025143164	0.03097588945382052	0.008314329665134587	0.02490019969290215	-0.09938047796233312	-0.002385564829281987	-0.02469631583552078	-0.0001634542704165227	-0.06902921696659936	-0.06902921696660012	-6.176628663836759e-05	-3.671388977510635e-07	-0.004555685017558833	-0.002524313346391073	-0.4345410387101144	0.02503808545381031	-0.01964603725377474	-0.208880560650289	0.1541850084873439	0.03682493466250294	0.3491245342284595	3.915594416765082	-17.23669052105748	2.982984477254909	4.52719144772297	-713.3745567872958	-42.11670183946858	-9.775443784607935	2.06436108171239	0.3685770175158361	1.386435489709658	-5.757826006641408	-0.1525995100957545	-1.398761253451162	-0.01482737362136245	-3.892674187741711	-3.89267418774184	-0.0246596836817841	0.008625821045227522	-0.4361028301333436	-0.1961375317694176	-3.822048138278321e-09	-1.105821184037748e-08	2.175722242609203e-08	1.208046316180531e-09	-6.864565617029978e-09	1.536341589570408e-08	-5.475904757648927e-09
1.03	-0.6621416236296851	-0.1370335652227759	0.6472435489284455	1.804554121885092	-0.3095248690905678	0.05739692133736527	-0.4363281285060888	0.9897088370304526	0.989708837030678	-0.1745181405057738	0.1745270402016399	0.02721548732817651	-0.05431353649580822	0.05150710460536759	0.01200140220395336	0.03873675927386009	-0.1567912308749795	-0.003766901552969993	-0.03873890364817606	-0.0001600252844549207	-0.1079061909623831	-0.1079061909623834	-3.294499017917356e-05	-1.036191371709332e-05	-0.008880287303167459	-0.004330597807451586	-0.4342388657090327	0.02511574967078032	-0.01965827124056415	-0.2088463522411702	0.1542885112635056	0.03685520145114669	0.3489798584847473	3.96072525145121	-17.26338978678301	2.993697317554916	4.431955401740549	-713.2199831994205	-42.15709479652044	-9.830576204868578	2.049273571089607	0.3695498786005374	1.381859051639027	-5.733911312919118	-0.1300591919464357	-1.406548764438338	0.007268886876530442	-3.88438904510753	-3.884389045107677	0.01700659229629436	-0.005981552952122774	-0.4302116009667875	-0.1719244398342038	-6.084294277543812e-09	-1.803987483145509e-08	3.448067794787038e-08	1.860502619999147e-09	-1.091059634974591e-08	2.305267830500373e-08	-8.665840579032911e-09
